<?xml version="1.0" encoding="UTF-8" standalone="no"?>
<svg
   version="1.0"
   width="80.025444pt"
   height="80.033005pt"
   viewBox="0 0 80.025444 80.033005"
   preserveAspectRatio="xMidYMid meet"
   id="svg16"
   sodipodi:docname="logo.svg"
   inkscape:version="1.1.2 (0a00cf5339, 2022-02-04)"
   xmlns:inkscape="http://www.inkscape.org/namespaces/inkscape"
   xmlns:sodipodi="http://sodipodi.sourceforge.net/DTD/sodipodi-0.dtd"
   xmlns="http://www.w3.org/2000/svg"
   xmlns:svg="http://www.w3.org/2000/svg">
  <defs
     id="defs20" />
  <sodipodi:namedview
     id="namedview18"
     pagecolor="#ffffff"
     bordercolor="#000000"
     borderopacity="0.25"
     inkscape:pageshadow="2"
     inkscape:pageopacity="0.0"
     inkscape:pagecheckerboard="0"
     inkscape:document-units="pt"
     showgrid="false"
     inkscape:showpageshadow="false"
     showborder="false"
     inkscape:zoom="1"
     inkscape:cx="401"
     inkscape:cy="236.5"
     inkscape:window-width="1920"
     inkscape:window-height="1066"
     inkscape:window-x="0"
     inkscape:window-y="27"
     inkscape:window-maximized="1"
     inkscape:current-layer="g14"
     fit-margin-top="0"
     fit-margin-left="0"
     fit-margin-right="0"
     fit-margin-bottom="0" />
  <metadata
     id="metadata2">
Created by potrace 1.16, written by Peter Selinger 2001-2019
</metadata>
  <g
     transform="matrix(0.0130784,0,0,-0.01464089,-65.299074,91.784857)"
     fill="#000000"
     stroke="none"
     id="g14"
     style="fill:#ffffff;fill-opacity:1">
    <path
       d="m 6673,6255 c -346,-40 -574,-106 -911,-266 -334,-158 -507,-350 -592,-656 -38,-138 -133,-550 -156,-673 -26,-148 -23,-295 9,-412 71,-262 217,-567 425,-890 42,-65 77,-116 79,-114 2,1 19,95 37,207 60,355 117,572 185,707 17,34 31,67 31,74 0,7 -16,36 -36,63 -47,66 -154,246 -199,335 -67,132 -70,243 -9,310 48,53 225,189 339,261 355,223 767,296 1348,239 684,-68 1368,-297 1910,-642 59,-37 112,-68 118,-68 23,0 189,122 245,181 33,35 87,109 119,164 33,55 84,125 115,157 49,48 67,59 131,78 l 74,22 -29,23 c -88,70 -517,302 -740,400 -601,264 -1209,432 -1791,495 -167,18 -564,21 -702,5 z"
       id="path4"
       style="fill:#ffff00;fill-opacity:1;stroke:#000000;stroke-width:7.22668;stroke-miterlimit:4;stroke-dasharray:none;stroke-opacity:1" />
    <path
       d="m 9865,5168 c -43,-24 -78,-66 -142,-177 -115,-195 -247,-308 -518,-441 -360,-176 -813,-314 -1380,-419 -477,-89 -719,-112 -972,-93 -166,12 -250,34 -418,109 -163,73 -226,94 -297,100 -202,17 -298,-130 -397,-607 -54,-263 -73,-420 -74,-605 0,-303 44,-426 242,-665 66,-79 101,-104 164,-114 31,-6 38,-4 43,11 3,10 23,59 45,108 36,84 92,239 123,345 14,45 106,222 151,289 14,19 25,40 25,45 0,5 17,32 39,60 21,28 70,96 108,151 108,153 222,249 378,318 100,44 73,36 2205,592 1306,340 1398,361 1550,351 l 95,-6 -26,23 c -78,66 -435,350 -569,451 -217,164 -313,208 -375,174 z"
       id="path6"
       style="fill:#ffff00;fill-opacity:1;stroke:#000000;stroke-width:7.22668;stroke-miterlimit:4;stroke-dasharray:none;stroke-opacity:1" />
    <path
       d="m 10697.538,4391.418 c -172.152,-35.8648 -213.14,-46.1119 -461.12,-110.6687 -109.644,-28.6918 -280.7706,-73.7791 -379.1427,-99.3968 -253.1034,-65.5815 -755.2114,-195.7197 -1086.1928,-281.7953 -154.7312,-39.9637 -394.5134,-104.5205 -532.8493,-143.4595 -138.3359,-38.939 -297.1659,-81.9768 -353.525,-96.3227 -56.3591,-14.346 -160.8795,-44.0626 -232.6092,-66.6062 -71.7297,-22.5436 -149.6077,-43.0378 -172.1513,-46.1119 -40.9884,-5.1236 -220.3127,-73.7792 -363.7721,-139.3606 -113.7429,-52.2602 -309.4625,-205.9668 -379.1428,-299.2154 -21.5189,-29.7166 -59.4332,-74.8038 -83.0015,-99.3969 -109.644,-113.7428 -286.9189,-543.0964 -298.1907,-724.4701 l -6.1482,-81.9768 32.7907,-27.6672 c 90.1745,-74.8038 471.3667,-139.3605 2035.0744,-341.2284 281.7953,-35.8649 542.0717,-68.6556 578.9612,-71.7298 l 66.6062,-6.1482 584.0848,597.406 c 680.4073,697.8276 808.4963,828.9905 1050.3283,1085.1681 307.413,324.8331 350.45,372.9945 369.92,416.0323 20.494,45.0873 40.988,203.9173 33.815,255.1528 -24.593,162.929 -50.21,226.461 -111.693,279.7459 -31.766,28.6919 -44.063,32.7907 -95.298,31.766 -31.766,0 -120.916,-13.3212 -196.744,-29.7166 z"
       id="path8"
       style="fill:#ffff00;fill-opacity:1;stroke:#000000;stroke-width:7.22668;stroke-miterlimit:4;stroke-dasharray:none;stroke-opacity:1" />
    <path
       d="m 11023,3711 c -37,-32 -311,-308 -608,-612 -297,-305 -688,-706 -870,-892 -181,-186 -334,-345 -338,-353 -16,-28 1,-42 59,-50 102,-12 188,13 405,118 229,111 408,211 500,279 85,63 238,222 312,326 32,45 93,149 136,231 93,178 111,204 164,243 58,42 97,101 160,242 124,278 192,500 159,521 -6,3 -41,-20 -79,-53 z"
       id="path10"
       style="fill:#ffff00;fill-opacity:1;stroke:#000000;stroke-width:7.22668196;stroke-miterlimit:4;stroke-dasharray:none;stroke-opacity:1" />
    <path
       d="m 6275,1990 c -103,-19 -150,-60 -161,-138 -6,-50 10,-159 26,-172 3,-3 28,-66 54,-140 92,-259 162,-377 248,-421 47,-24 100,-27 203,-9 99,16 121,7 192,-77 166,-196 293,-248 543,-223 152,16 237,48 607,234 367,183 566,293 663,367 93,71 298,265 305,290 12,38 66,29 -575,103 -843,99 -1507,166 -1825,186 -177,11 -221,11 -280,0 z"
       id="path12"
       style="fill:#ffff00;fill-opacity:0.999995;stroke:#000000;stroke-width:7.22668196;stroke-miterlimit:4;stroke-dasharray:none;stroke-opacity:1" />
  </g>
</svg>
